# xmcd CD database file
#
# Track frame offsets:
#	150
#	18341
#	29841
#	42119
#	58172
#	75877
#	85291
#	96034
#	121383
#	135815
#	156176
#	179821
#	194946
#	207116
#
# Disc length: 2914 seconds
#
# Revision: 0
# Processed by: cddbd v1.4PL0 Copyright (c) Steve Scherf et al.
# Submitted via: Feurio! 1.66 - http://www.feurio.com
#
DISCID=bc0b600e
DTITLE=Blues Lee - That's the Ticket!
DYEAR=1900
DGENRE=
TTITLE0=Start it up
TTITLE1=Mary had a little lamb
TTITLE2=Riot in cell block No. 9
TTITLE3=All your loving
TTITLE4=Out of reach
TTITLE5=Blues for Django
TTITLE6=I'm a King Bee
TTITLE7=California girl
TTITLE8=It hurts me too
TTITLE9=Rumble in the jungle
TTITLE10=Fool for your stockings
TTITLE11=I just wanna make love to you
TTITLE12=Crossroads
TTITLE13=It's over
EXTD=
EXTT0=
EXTT1=
EXTT2=
EXTT3=
EXTT4=
EXTT5=
EXTT6=
EXTT7=
EXTT8=
EXTT9=
EXTT10=
EXTT11=
EXTT12=
EXTT13=
PLAYORDER=
